<svg width="340" height="96" viewBox="0 0 340 96" fill="none" xmlns="http://www.w3.org/2000/svg">
  <rect width="340" height="96" rx="18" fill="#0F172A"/>
  <path d="M52 68V28H64L84 52L104 28H116V68H104V46L84 70L64 46V68H52Z" fill="#23C26B"/>
  <path d="M136 68V28H170C181 28 188 34 188 44C188 54 181 60 170 60H148V68H136ZM148 50H168C173 50 176 48 176 44C176 40 173 38 168 38H148V50Z" fill="#E2E8F0"/>
  <path d="M202 68V28H214V58H246V68H202Z" fill="#E2E8F0"/>
  <path d="M258 68V28H270V68H258Z" fill="#E2E8F0"/>
  <path d="M286 68V28H298L320 52V28H332V68H320L298 44V68H286Z" fill="#0B77B5"/>
</svg>
